<svg height="512" width="512" xmlns="http://www.w3.org/2000/svg"><path d="M7.8 510h132.6V161.2H7.8zm30-318.7h72.6V480H37.8zM74.1 2a74.2 74.2 0 10.2 148.4A74.2 74.2 0 0074 2.1zM30 76.3a44.1 44.1 0 1188.3 0 44.1 44.1 0 01-88.3 0zM511.7 270.8a129.9 129.9 0 00-131.5-120.2c-31.4 0-61 11-84.4 30.3v-19.6h-127V510h132.6V319.3a39 39 0 0178 0v190.6H512V271.1zM271.4 479.9h-72.6V191.3h67v42.9l24 .1 4.5-7c18.8-29.2 51-46.7 85.9-46.7a100 100 0 01101.8 97V480h-72.6V319.3a69 69 0 00-138 0z" fill="white"/></svg>
