<svg height="512" viewBox="0 0 24 24" width="512" xmlns="http://www.w3.org/2000/svg"><path d="M.5 19.6A14 14 0 008 21.7 13.8 13.8 0 0021.8 7.8c1-.8 2-2.3 2-3.8 0-.6-.5-1-1-.6-1 .5-1.7.6-2.6.4a5.4 5.4 0 00-6.3-.9A5.2 5.2 0 0011 7.8c-3.2-.4-6-2-8-4.5a.8.8 0 00-1.3.1c-1 1.7-1 3.7-.1 5.2-.4 0-.7.4-.7.8 0 1.6.7 3 1.9 4-.2.2-.3.5-.2.8a5.4 5.4 0 003 3.2c-1.5.8-3.2 1-4.7.8-.8 0-1.2 1-.5 1.4zm7.7-2a.8.8 0 00-.5-1.3 4 4 0 01-3-1.6l1-.1c.7-.2.7-1.3 0-1.5a3.8 3.8 0 01-3-2.6l1.1.1c.8 0 1-1 .5-1.3-1.4-1-2-2.6-1.6-4.1a14 14 0 009.2 4.1c.5 0 .9-.4.8-.9-.5-2 .7-3.5 1.9-4.2 1.2-.6 3.2-.8 4.7.8.4.4 2 .4 2.7.3-.3.6-.9 1.2-1.4 1.6-.2.1-.3.4-.3.6A12.2 12.2 0 018 20.2c-1.4 0-2.8-.2-4-.6 1.5-.3 3-1 4.2-2z" fill="white"/></svg>
